<?xml version="1.0" encoding="UTF-8"?>
<svg xmlns="http://www.w3.org/2000/svg" xmlns:xlink="http://www.w3.org/1999/xlink" width="456px" height="456px" viewBox="0 0 456 456" version="1.1" fill="#000000">
<g id="surface1">
<path style=" stroke: #000000;fill-rule:nonzero;fill: #000000;fill-opacity:1;" d="M 283.496094 32.144531 L 283.496094 60.132812 L 311.484375 60.132812 L 311.484375 4.148438 L 283.496094 4.148438 Z M 283.496094 32.144531 "/>
<path style=" stroke: #000000;fill-rule:nonzero;fill: #000000;fill-opacity:1;" d="M 188.589844 49.636719 L 178.964844 59.257812 L 198.648438 78.9375 L 218.328125 98.617188 L 228.125 88.824219 L 238.003906 78.9375 L 218.589844 59.523438 C 207.832031 48.765625 198.90625 40.015625 198.644531 40.015625 C 198.386719 40.015625 193.835938 44.386719 188.589844 49.636719 Z M 188.589844 49.636719 "/>
<path style=" stroke: #000000;fill-rule:nonzero;fill: #000000;fill-opacity:1;" d="M 376.390625 59.523438 L 356.976562 78.9375 L 366.859375 88.824219 L 376.65625 98.617188 L 396.335938 78.9375 L 416.019531 59.257812 L 406.394531 49.636719 C 401.148438 44.386719 396.597656 40.015625 396.335938 40.015625 C 396.074219 40.015625 387.148438 48.761719 376.390625 59.523438 Z M 376.390625 59.523438 "/>
<path style=" stroke: #000000;fill-rule:nonzero;fill: #000000;fill-opacity:1;" d="M 285.945312 88.996094 C 271.949219 91.359375 258.566406 98.359375 248.15625 108.765625 C 242.90625 114.015625 236.257812 123.371094 234.074219 128.710938 L 232.851562 131.683594 L 237.835938 132.207031 C 240.550781 132.558594 247.019531 133.433594 252.269531 134.21875 L 261.628906 135.53125 L 266.792969 129.933594 C 272.566406 123.722656 279.386719 119.523438 287.433594 117.425781 C 314.375 110.425781 341.230469 132.992188 339.304688 160.898438 L 338.867188 166.757812 L 344.289062 170.34375 C 347.261719 172.269531 352.597656 176.03125 356.1875 178.742188 L 362.570312 183.554688 L 363.707031 180.316406 C 370.527344 160.722656 367.640625 137.804688 356.09375 120.222656 C 345.511719 103.953125 329.328125 93.109375 310.257812 89.433594 C 303.003906 88.035156 292.765625 87.863281 285.945312 88.996094 Z M 285.945312 88.996094 "/>
<path style=" stroke: #000000;fill-rule:nonzero;fill: #000000;fill-opacity:1;" d="M 395.457031 158.101562 L 395.457031 172.09375 L 451.441406 172.09375 L 451.441406 144.105469 L 395.460938 144.105469 L 395.460938 158.101562 Z M 395.457031 158.101562 "/>
<path style=" stroke: #000000;fill-rule:nonzero;fill: #000000;fill-opacity:1;" d="M 192.960938 159.9375 C 146.160156 164.398438 99.890625 186.179688 66.128906 219.769531 C 33.503906 252.308594 12.859375 293.15625 6.210938 338.464844 C 3.589844 355.785156 3.152344 355.085938 12.070312 347.914062 C 37.875 327.007812 73.648438 320.710938 105.140625 331.382812 C 114.496094 334.535156 126.917969 341.53125 135.492188 348.441406 L 143.625 355.003906 L 149.921875 349.84375 C 157.886719 343.367188 162.695312 340.136719 169.605469 336.632812 C 176.078125 333.394531 188.496094 329.109375 194.972656 327.972656 L 199.523438 327.183594 L 199.523438 369.957031 C 199.523438 417.453125 199.609375 416.578125 193.75 421.039062 C 191.035156 423.136719 189.636719 423.574219 185.441406 423.574219 C 181.679688 423.574219 179.753906 423.136719 177.917969 421.734375 C 174.070312 418.9375 171.878906 414.914062 171.269531 410.011719 C 170.308594 401.703125 165.933594 396.894531 158.585938 396.191406 C 152.988281 395.667969 148.527344 397.765625 145.554688 402.226562 C 143.542969 405.378906 143.367188 406.164062 143.71875 412.8125 C 144.242188 421.824219 146.777344 428.472656 152.113281 435.644531 C 167.507812 455.761719 197.949219 457.421875 215.441406 439.054688 C 218.15625 436.253906 221.300781 431.96875 222.613281 429.433594 C 227.425781 419.984375 227.511719 418.585938 227.511719 371 L 227.511719 327.179688 L 232.148438 327.96875 C 238.535156 329.105469 250.953125 333.390625 257.429688 336.628906 C 264.429688 340.125 269.152344 343.363281 277.199219 349.925781 L 283.582031 355.085938 L 288.566406 350.800781 C 301.863281 339.253906 317.609375 331.472656 335.539062 327.621094 C 342.273438 326.222656 364.582031 326.222656 371.402344 327.621094 C 387.320312 331.03125 403.332031 338.46875 415.222656 348.09375 C 419.425781 351.503906 422.570312 353.515625 422.570312 352.816406 C 422.570312 347.480469 419.160156 327.621094 416.445312 316.777344 C 400.789062 255.375 357.578125 203.675781 299.933594 177.699219 C 267.050781 162.824219 229.089844 156.527344 192.960938 159.9375 Z M 192.960938 159.9375 "/>
</g>
</svg>
