<?xml version="1.0"?>
<svg xmlns="http://www.w3.org/2000/svg" xmlns:xlink="http://www.w3.org/1999/xlink" xmlns:svgjs="http://svgjs.com/svgjs" id="SvgjsSvg1001" width="288" height="288" version="1.1" fill="#111111">
  <defs id="SvgjsDefs1002"/>
  <g id="SvgjsG1008">
    <svg xmlns="http://www.w3.org/2000/svg" width="288" height="288" version="1.0" viewBox="0 0 240 240">
      <g transform="matrix(.1 0 0 -.1 0 240)" fill="#111111" class="color000 svgShape">
        <path d="M1646 2093c-38-10-96-56-119-92-33-54-31-152 5-204 45-66 93-92 168-92 78 0 123 23 166 87 24 36 29 53 29 108 0 55-5 72-29 108-16 23-44 51-62 63-34 20-121 33-158 22zM1355 1688c-46-27-531-422-542-441-34-60-15-91 151-257l136-135 0-187c0-203 5-230 51-254 52-27 115-8 137 41 19 40 17 457-2 493-8 15-64 76-125 136l-110 109 161 128c88 71 163 127 167 124 4-2 40-53 80-113 41-63 83-114 97-121 39-17 357-15 393 3 47 25 63 83 37 135-23 43-54 51-200 51l-133 0-92 139c-55 82-102 143-117 150-31 14-63 14-89-1zM406 990c-63-16-153-70-197-117-22-24-55-74-72-111-29-61-32-76-32-163 0-90 2-99 37-171 45-91 103-147 196-191 61-29 76-32 162-32 86 0 101 3 162 32 93 44 151 100 196 191 35 72 37 81 37 172 0 91-2 100-37 172-68 136-188 217-336 224-42 2-94-1-116-6zm204-224c59-39 85-89 85-166 0-78-26-127-88-168-56-37-153-39-210-3-76 47-111 140-88 229 14 51 75 117 123 131 53 16 135 6 178-23z" fill="#111111" class="color000 svgShape"/>
        <path d="M1806 990 c-63 -16 -153 -70 -197 -117 -22 -24 -55 -74 -72 -111 -29-61 -32 -76 -32 -163 0 -90 2 -99 37 -171 45 -91 103 -147 196 -191 61 -29 76 -32 162 -32 86 0 101 3 162 32 93 44 151 100 196 191 35 72 37 81 37 172 0 91 -2 100 -37 172 -68 136 -188 217 -336 224 -42 2 -94 -1 -116 -6z m204 -224 c59 -39 85 -89 85 -166 0 -78 -26 -127 -88 -168 -56 -37 -153 -39 -210 -3 -76 47 -111 140 -88 229 14 51 75 117 123 131 53 16 135 6 178 -23z" fill="#111111" class="color000 svgShape"/>
      </g>
    </svg>
  </g>
</svg>
