<?xml version="1.0" standalone="no"?>
<!DOCTYPE svg PUBLIC "-//W3C//DTD SVG 20010904//EN" "http://www.w3.org/TR/2001/REC-SVG-20010904/DTD/svg10.dtd">
<svg xmlns="http://www.w3.org/2000/svg" version="1.0" width="240.000000pt" height="240.000000pt" viewBox="0 0 240.000000 240.000000" preserveAspectRatio="xMidYMid meet" fill="#111111">

<g transform="translate(0.000000,240.000000) scale(0.100000,-0.100000)" fill="#111111" stroke="none">
<path d="M751 2186 c-36 -20 -50 -54 -51 -122 l0 -62 -87 -4 c-141 -7 -227 -58 -280 -166 l-28 -57 0 -675 0 -675 28 -57 c32 -64 80 -111 146 -142 45 -21 56 -21 721 -21 665 0 676 0 721 21 66 31 114 78 146 142 l28 57 0 675 0 675 -28 57 c-53 108 -139 159 -279 166 l-88 4 0 60 c0 68 -18 109 -55 126 -34 16 -60 15 -94 -2 -36 -19 -51 -55 -51 -126 l0 -60 -300 0 -300 0 0 60 c0 71 -15 107 -51 126 -34 17 -67 17 -98 0z m-51 -446 c0 -70 17 -111 55 -128 33 -15 57 -15 90 0 38 17 55 58 55 128 l0 60 300 0 300 0 0 -60 c0 -34 6 -73 14 -89 35 -66 137 -66 172 0 8 16 14 55 14 89 l0 60 60 0 c127 0 140 -23 140 -240 l0 -160 -700 0 -700 0 0 163 c1 215 13 236 138 237 l62 0 0 -60z m1200 -900 c0 -392 -2 -404 -55 -428 -37 -17 -1253 -17 -1290 0 -53 24 -55 36 -55 428 l0 360 700 0 700 0 0 -360z"/>
<path d="M1051 986 c-72 -40 -63 -149 14 -177 l35 -13 0 -109 c0 -120 11 -155 55 -175 33 -15 57 -15 90 0 49 22 55 51 55 248 l0 182 -29 29 c-28 27 -34 29 -113 29 -50 -1 -93 -6 -107 -14z"/>
</g>
</svg>
