<?xml version="1.0" standalone="no"?>
<!DOCTYPE svg PUBLIC "-//W3C//DTD SVG 20010904//EN" "http://www.w3.org/TR/2001/REC-SVG-20010904/DTD/svg10.dtd">
<svg xmlns="http://www.w3.org/2000/svg" version="1.0" width="240.000000pt" height="240.000000pt" viewBox="0 0 240.000000 240.000000" preserveAspectRatio="xMidYMid meet" fill="#616161">

<g transform="translate(0.000000,240.000000) scale(0.100000,-0.100000)" fill="#616161" stroke="none">
<path d="M1032 2185 c-215 -39 -385 -127 -537 -280 -130 -129 -215 -277 -263 -454 -33 -127 -37 -342 -8 -466 149 -642 842 -969 1428 -675 259 129 447 369 521 660 29 115 30 329 3 445 -94 404 -405 699 -811 770 -105 18 -233 18 -333 0z m358 -208 c209 -57 368 -171 480 -344 89 -136 125 -259 125 -433 0 -225 -76 -411 -230 -565 -154 -154 -340 -230 -565 -230 -174 0 -297 36 -433 125 -174 113 -286 271 -345 485 -24 86 -22 287 2 380 76 287 305 516 581 579 39 8 79 18 90 20 39 9 241 -3 295 -17z"/>
<path d="M1151 1786 c-48 -27 -50 -42 -51 -334 0 -217 3 -279 14 -300 24 -45 328 -340 358 -347 77 -19 142 46 123 123 -4 16 -64 84 -151 172 l-144 146 0 236 c0 163 -4 245 -12 263 -22 48 -88 68 -137 41z"/>
</g>
</svg>
