<?xml version="1.0" standalone="no"?>
<!DOCTYPE svg PUBLIC "-//W3C//DTD SVG 20010904//EN" "http://www.w3.org/TR/2001/REC-SVG-20010904/DTD/svg10.dtd">
<svg xmlns="http://www.w3.org/2000/svg" version="1.0" width="240.000000pt" height="240.000000pt" viewBox="0 0 240.000000 240.000000" preserveAspectRatio="xMidYMid meet" fill="#616161">

<g transform="translate(0.000000,240.000000) scale(0.100000,-0.100000)" fill="#616161" stroke="none">
<path d="M1032 2185 c-215 -39 -385 -127 -537 -280 -130 -129 -215 -277 -263 -454 -33 -127 -37 -342 -8 -466 149 -642 842 -969 1428 -675 259 129 447 369 521 660 29 115 30 329 3 445 -94 404 -405 699 -811 770 -105 18 -233 18 -333 0z m358 -208 c209 -57 368 -171 480 -344 89 -136 125 -259 125 -433 0 -225 -76 -411 -230 -565 -154 -154 -340 -230 -565 -230 -174 0 -297 36 -433 125 -174 113 -286 271 -345 485 -24 86 -22 287 2 380 76 287 305 516 581 579 39 8 79 18 90 20 39 9 241 -3 295 -17z"/>
<path d="M1070 1784 c-221 -47 -408 -236 -455 -459 -26 -125 -16 -184 36 -211 35 -18 63 -18 98 1 34 17 47 49 55 130 8 76 52 170 107 229 54 60 163 114 244 122 81 8 113 21 130 55 18 34 19 60 3 94 -25 54 -92 67 -218 39z"/>
<path d="M1545 1681 c-16 -10 -89 -79 -162 -152 l-132 -134 -58 -1 c-46 0 -67 -6 -101 -28 -63 -43 -87 -88 -87 -166 0 -75 26 -123 92 -168 52 -36 150 -38 204 -5 59 37 93 97 93 166 l1 58 138 137 c138 137 167 173 167 211 0 53 -49 101 -102 101 -13 0 -36 -9 -53 -19z"/>
</g>
</svg>
