<?xml version="1.0" encoding="utf-8"?>

<!DOCTYPE svg PUBLIC "-//W3C//DTD SVG 1.1//EN" "http://www.w3.org/Graphics/SVG/1.1/DTD/svg11.dtd">
<svg version="1.1"
     xmlns="http://www.w3.org/2000/svg"
     xmlns:xlink="http://www.w3.org/1999/xlink" x="0px" y="0px" viewBox="0 0 1000 1000"
     enable-background="new 0 0 1000 1000" xml:space="preserve">
    <g>
        <g transform="translate(0.000000,512.000000) scale(0.100000,-0.100000)">
            <path d="M6217,4415.1v-613.8h306.9h306.9v613.8V5029h-306.9H6217V4415.1z" />
            <path
				d="M4135.7,4031.5l-211-211l431.6-431.6l431.6-431.6l214.8,214.8l216.7,216.8l-425.8,425.8c-235.9,235.9-431.6,427.8-437.4,427.8C4350.6,4242.5,4250.8,4146.6,4135.7,4031.5z" />
            <path
				d="M8254.2,3814.7l-425.8-425.8l216.8-216.8l214.8-214.8l431.6,431.6l431.6,431.6l-211,211c-115.1,115.1-214.9,211-220.6,211C8685.8,4242.5,8490.1,4050.7,8254.2,3814.7z" />
            <path
				d="M6270.7,3168.3c-306.9-51.8-600.4-205.3-828.7-433.5c-115.1-115.1-260.9-320.3-308.8-437.4l-26.8-65.2l109.3-11.5c59.5-7.7,201.4-26.9,316.5-44.1l205.3-28.8l113.2,122.8c126.6,136.2,276.2,228.3,452.7,274.3c590.8,153.5,1179.7-341.4,1137.5-953.4l-9.6-128.5l118.9-78.6c65.2-42.2,182.2-124.7,260.9-184.2l140-105.5l24.9,71c149.6,429.7,86.3,932.3-166.9,1317.8c-232.1,356.8-587,594.6-1005.2,675.2C6644.8,3189.4,6420.3,3193.2,6270.7,3168.3z" />
            <path d="M8672.3,1652.9V1346h613.8H9900v306.9v306.9h-613.8h-613.8V1652.9z" />
            <path
				d="M4231.6,1612.6c-1026.3-97.8-2041-575.5-2781.4-1312.1C734.7-413.1,282-1308.9,136.2-2302.5c-57.5-379.8-67.1-364.5,128.5-207.2c565.9,458.5,1350.4,596.6,2041,362.5c205.2-69.1,477.6-222.5,665.6-374.1l178.4-143.9l138.1,113.2c174.6,142,280.1,212.9,431.6,289.7c142,71,414.3,165,556.3,189.9l99.8,17.3v-938c0-1041.6,1.9-1022.4-126.6-1120.2c-59.5-46-90.2-55.6-182.2-55.6c-82.5,0-124.7,9.6-165,40.3c-84.4,61.4-132.4,149.6-145.8,257.1c-21.1,182.2-117,287.7-278.1,303.1c-122.8,11.5-220.6-34.5-285.8-132.4c-44.1-69.1-48-86.3-40.3-232.1c11.5-197.6,67.1-343.4,184.1-500.7c337.6-441.2,1005.2-477.6,1388.8-74.8c59.5,61.4,128.5,155.4,157.3,211c105.5,207.2,107.4,237.9,107.4,1281.4v961l101.7-17.3c140-24.9,412.4-118.9,554.4-189.9c153.5-76.7,257.1-147.7,433.5-291.6l140-113.2l109.3,94c291.6,253.2,636.9,423.9,1030.1,508.3c147.7,30.7,636.9,30.7,786.5,0c349.1-74.8,700.2-237.9,961-448.9c92.1-74.8,161.1-118.9,161.1-103.6c0,117-74.8,552.5-134.3,790.3c-343.4,1346.6-1291,2480.3-2555.1,3050C5856.4,1549.3,5023.9,1687.4,4231.6,1612.6z" />
        </g>
    </g>
</svg>