<?xml version="1.0" standalone="no"?>
<!DOCTYPE svg PUBLIC "-//W3C//DTD SVG 20010904//EN" "http://www.w3.org/TR/2001/REC-SVG-20010904/DTD/svg10.dtd">
<svg xmlns="http://www.w3.org/2000/svg" version="1.0" width="240.000000pt" height="240.000000pt" viewBox="0 0 240.000000 240.000000" preserveAspectRatio="xMidYMid meet" fill="#616161">

<g transform="translate(0.000000,240.000000) scale(0.100000,-0.100000)" fill="#616161" stroke="none">
<path d="M1246 2193 c-38 -10 -96 -56 -119 -92 -33 -54 -31 -152 5 -204 45 -66 93 -92 168 -92 78 0 123 23 166 87 24 36 29 53 29 108 0 55 -5 72 -29 108 -16 23 -44 51 -62 63 -34 20 -121 33 -158 22z"/>
<path d="M915 1645 c-137 -29 -258 -56 -268 -60 -39 -16 -47 -56 -47 -235 0 -187 7 -216 55 -238 33 -15 57 -15 90 0 45 20 55 55 55 186 l0 119 133 27 c72 14 135 26 138 26 3 0 -12 -108 -34 -240 -36 -217 -39 -244 -26 -270 9 -18 85 -82 202 -170 l187 -140 0 -185 c0 -200 6 -227 51 -251 52 -27 115 -8 137 41 17 37 16 461 -1 492 -7 12 -91 81 -187 153 -96 72 -179 135 -183 139 -7 7 40 329 50 340 2 3 42 -34 91 -81 l87 -85 175 -58 c186 -61 211 -64 250 -25 38 38 38 102 1 139 -10 10 -83 40 -162 66 l-144 47 -161 159 c-155 153 -162 159 -200 158 -21 -1 -151 -25 -289 -54z"/>
<path d="M921 832 c-12 -9 -35 -40 -50 -67 -15 -28 -31 -49 -37 -49 -5 1 -107 21 -226 44 -191 38 -221 41 -248 30 -33 -13 -60 -55 -60 -90 0 -34 27 -76 57 -88 15 -6 146 -34 290 -63 323 -64 303 -68 374 72 59 118 63 157 20 200 -35 34 -86 39 -120 11z"/>
</g>
</svg>
